<svg xmlns="http://www.w3.org/2000/svg" width="640" height="360" viewBox="0 0 640 360" role="img" aria-label="QUARKDEX thumbnail">
  <rect width="640" height="360" fill="#8fbd66"/>
  <path d="M0 0h640v190H0z" fill="#f8f0d0"/>
  <path d="M0 190h640v170H0z" fill="#5b8d50"/>
  <g stroke="#2c1810" stroke-width="8" stroke-linejoin="round">
    <path d="M70 96h230v126H70z" fill="#d2e4f0"/>
    <path d="M104 58h162v42H104z" fill="#e83030"/>
    <path d="M152 168h96v36h-96z" fill="#f8c800"/>
    <path d="M340 64h234v212H340z" fill="#fff8dc"/>
    <path d="M370 104h174M370 148h174M370 192h120" fill="none"/>
  </g>
  <g font-family="Courier New, monospace" font-weight="900" text-anchor="middle" fill="#2c1810">
    <text x="185" y="195" font-size="28">LAB</text>
    <text x="457" y="95" font-size="38">QUARKDEX</text>
    <text x="457" y="244" font-size="28">32/32</text>
  </g>
  <g stroke="#2c1810" stroke-width="7" font-family="Courier New, monospace" font-size="34" font-weight="900" text-anchor="middle">
    <line x1="196" y1="270" x2="248" y2="305" stroke="#2c1810"/>
    <line x1="196" y1="270" x2="145" y2="305" stroke="#2c1810"/>
    <rect x="165" y="224" width="62" height="62" fill="#ff6b35"/>
    <rect x="112" y="284" width="62" height="62" fill="#4488ff"/>
    <rect x="218" y="284" width="62" height="62" fill="#44cc44"/>
    <text x="196" y="266" fill="#2c1810">u</text>
    <text x="143" y="326" fill="#fff">d</text>
    <text x="249" y="326" fill="#2c1810">s</text>
  </g>
</svg>
