<svg xmlns="http://www.w3.org/2000/svg" width="640" height="360" viewBox="0 0 640 360">
  <defs>
    <linearGradient id="bg" x1="0" y1="0" x2="1" y2="1">
      <stop offset="0" stop-color="#edf7ff"/>
      <stop offset="0.58" stop-color="#f8fbff"/>
      <stop offset="1" stop-color="#eefcf8"/>
    </linearGradient>
    <linearGradient id="metal" x1="0" y1="0" x2="1" y2="1">
      <stop offset="0" stop-color="#f8fafc"/>
      <stop offset="0.42" stop-color="#bfdbfe"/>
      <stop offset="0.78" stop-color="#94a3b8"/>
      <stop offset="1" stop-color="#475569"/>
    </linearGradient>
    <linearGradient id="redPlate" x1="0" y1="0" x2="1" y2="0">
      <stop offset="0" stop-color="#991b1b"/>
      <stop offset="0.55" stop-color="#ef4444"/>
      <stop offset="1" stop-color="#fecaca"/>
    </linearGradient>
    <linearGradient id="bluePlate" x1="0" y1="0" x2="1" y2="0">
      <stop offset="0" stop-color="#1e3a8a"/>
      <stop offset="0.55" stop-color="#3b82f6"/>
      <stop offset="1" stop-color="#bfdbfe"/>
    </linearGradient>
  </defs>
  <rect width="640" height="360" fill="url(#bg)"/>
  <g opacity="0.34" stroke="#cbd5e1">
    <path d="M0 72H640M0 144H640M0 216H640M0 288H640"/>
    <path d="M80 0V360M160 0V360M240 0V360M320 0V360M400 0V360M480 0V360M560 0V360"/>
  </g>
  <rect x="70" y="70" width="28" height="190" rx="14" fill="url(#redPlate)" stroke="#fecaca" stroke-width="2"/>
  <rect x="542" y="70" width="28" height="190" rx="14" fill="url(#bluePlate)" stroke="#bfdbfe" stroke-width="2"/>
  <g font-family="Arial, sans-serif" font-size="23" font-weight="900" text-anchor="middle" fill="#fff">
    <text x="84" y="108">+</text><text x="84" y="148">+</text><text x="84" y="188">+</text><text x="84" y="228">+</text>
    <text x="556" y="108">-</text><text x="556" y="148">-</text><text x="556" y="188">-</text><text x="556" y="228">-</text>
  </g>
  <g stroke="#0e7490" stroke-width="3" opacity="0.38" fill="none" stroke-linecap="round">
    <path d="M112 100H252"/>
    <path d="M388 100H528"/>
    <path d="M112 140H252"/>
    <path d="M388 140H528"/>
    <path d="M112 220H252"/>
    <path d="M388 220H528"/>
    <path d="M112 260H528"/>
  </g>
  <g fill="#0e7490" opacity="0.58">
    <path d="M246 100l-14-6 4 6-4 6z"/>
    <path d="M522 100l-14-6 4 6-4 6z"/>
    <path d="M246 140l-14-6 4 6-4 6z"/>
    <path d="M522 140l-14-6 4 6-4 6z"/>
    <path d="M246 220l-14-6 4 6-4 6z"/>
    <path d="M522 220l-14-6 4 6-4 6z"/>
    <path d="M522 260l-14-6 4 6-4 6z"/>
  </g>
  <rect x="250" y="82" width="140" height="160" rx="20" fill="url(#metal)" stroke="#e2e8f0" stroke-width="3"/>
  <g font-family="Arial, sans-serif" font-weight="900" text-anchor="middle">
    <g fill="#ef4444">
      <circle cx="284" cy="118" r="8"/><text x="284" y="123" font-size="12" fill="#fff">+</text>
      <circle cx="322" cy="118" r="8"/><text x="322" y="123" font-size="12" fill="#fff">+</text>
      <circle cx="360" cy="118" r="8"/><text x="360" y="123" font-size="12" fill="#fff">+</text>
      <circle cx="284" cy="158" r="8"/><text x="284" y="163" font-size="12" fill="#fff">+</text>
      <circle cx="322" cy="158" r="8"/><text x="322" y="163" font-size="12" fill="#fff">+</text>
      <circle cx="360" cy="158" r="8"/><text x="360" y="163" font-size="12" fill="#fff">+</text>
      <circle cx="284" cy="198" r="8"/><text x="284" y="203" font-size="12" fill="#fff">+</text>
      <circle cx="322" cy="198" r="8"/><text x="322" y="203" font-size="12" fill="#fff">+</text>
      <circle cx="360" cy="198" r="8"/><text x="360" y="203" font-size="12" fill="#fff">+</text>
    </g>
    <g fill="#2563eb">
      <circle cx="266" cy="118" r="7"/><text x="266" y="123" font-size="12" fill="#fff">-</text>
      <circle cx="266" cy="158" r="7"/><text x="266" y="163" font-size="12" fill="#fff">-</text>
      <circle cx="266" cy="198" r="7"/><text x="266" y="203" font-size="12" fill="#fff">-</text>
      <circle cx="276" cy="138" r="7"/><text x="276" y="143" font-size="12" fill="#fff">-</text>
      <circle cx="276" cy="178" r="7"/><text x="276" y="183" font-size="12" fill="#fff">-</text>
    </g>
  </g>
  <text x="320" y="298" text-anchor="middle" font-family="Pretendard, Arial, sans-serif" font-size="31" font-weight="900" fill="#102033">정전기 유도와 유전분극</text>
  <text x="320" y="326" text-anchor="middle" font-family="Pretendard, Arial, sans-serif" font-size="16" font-weight="800" fill="#475569">고정된 원자핵, 달라지는 전자</text>
</svg>
