<svg xmlns="http://www.w3.org/2000/svg" viewBox="0 0 320 180" role="img" aria-label="축전기 시뮬레이션 썸네일">
  <defs>
    <linearGradient id="bg" x1="0" x2="1" y1="0" y2="1">
      <stop offset="0" stop-color="#eef7ff"/>
      <stop offset="1" stop-color="#dbeafe"/>
    </linearGradient>
    <linearGradient id="plateRed" x1="0" x2="1">
      <stop offset="0" stop-color="#fee2e2"/>
      <stop offset="1" stop-color="#ef4444"/>
    </linearGradient>
    <linearGradient id="plateBlue" x1="0" x2="1">
      <stop offset="0" stop-color="#3b82f6"/>
      <stop offset="1" stop-color="#dbeafe"/>
    </linearGradient>
    <filter id="shadow" x="-20%" y="-20%" width="140%" height="150%">
      <feDropShadow dx="0" dy="6" stdDeviation="5" flood-color="#0f172a" flood-opacity=".22"/>
    </filter>
  </defs>
  <rect width="320" height="180" rx="24" fill="url(#bg)"/>
  <g opacity=".45" stroke="#94a3b8" stroke-width="1">
    <path d="M0 148H320M0 124H320M0 100H320"/>
    <path d="M35 180 116 66M92 180 153 66M149 180 190 66M206 180 227 66M263 180 264 66"/>
  </g>
  <g filter="url(#shadow)">
    <rect x="94" y="38" width="28" height="104" rx="3" fill="url(#plateRed)" stroke="#7f1d1d" stroke-width="4"/>
    <rect x="198" y="38" width="28" height="104" rx="3" fill="url(#plateBlue)" stroke="#1e3a8a" stroke-width="4"/>
    <rect x="127" y="50" width="66" height="80" rx="4" fill="#8b5cf6" opacity=".28" stroke="#6d28d9" stroke-width="2" stroke-dasharray="5 4"/>
  </g>
  <g stroke="#334155" stroke-width="5" fill="none" stroke-linecap="round" stroke-linejoin="round">
    <path d="M94 142V158H52V118"/>
    <path d="M226 142V158H270V118"/>
    <path d="M52 118V96"/>
    <path d="M270 118V96"/>
  </g>
  <g fill="#f8fafc" stroke="#334155" stroke-width="4">
    <rect x="35" y="68" width="34" height="32" rx="6"/>
    <path d="M258 75h24v18h-24z"/>
  </g>
  <text x="52" y="91" text-anchor="middle" font-family="Arial, sans-serif" font-size="18" font-weight="900" fill="#ef4444">+</text>
  <text x="270" y="91" text-anchor="middle" font-family="Arial, sans-serif" font-size="18" font-weight="900" fill="#3b82f6">−</text>
  <g font-family="Arial, sans-serif" font-weight="900">
    <text x="108" y="33" text-anchor="middle" font-size="20" fill="#ef4444">+</text>
    <text x="212" y="33" text-anchor="middle" font-size="20" fill="#3b82f6">−</text>
    <text x="160" y="99" text-anchor="middle" font-size="21" fill="#4c1d95">C</text>
    <text x="160" y="164" text-anchor="middle" font-size="19" fill="#0f172a">축전기</text>
  </g>
  <g stroke="#f59e0b" stroke-width="3" stroke-linecap="round" opacity=".95">
    <path d="M139 68h42"/>
    <path d="M139 90h42"/>
    <path d="M139 112h42"/>
    <path d="m176 63 8 5-8 5"/>
    <path d="m176 85 8 5-8 5"/>
    <path d="m176 107 8 5-8 5"/>
  </g>
</svg>
